<svg xmlns="http://www.w3.org/2000/svg" width="2083" height="2083"><path fill="#ececec" d="M896.135 1631.896H151.403l96.555-237.354 51.016-27.969 80.29-185.61 64.92-38.14 61.713-111.655h60.943l135.417 228.616 68.896 35.596z"/><path fill="#dcdcdc" d="M151.403 1631.896h321.23v-185.23l82.427-129.674-39.272-136.03 51.052-149.794h-60.943l-61.714 111.655-64.918 38.14-80.291 185.61-51.016 27.97zm415.437 0 31.119-97.51 50.348-49.581 22.465-58.48 15.676 12.713v55.937l-38.14 44.496v92.791zm59.804-300.364 8.363-39.118 22.441-22.46 10.52 13.349-14.026 17.44 6.311 37.226z"/><path fill="#ececec" d="M842.552 1631.721H1931.93l-205.562-429.28-98.87-42.392-104.945-205.075-69.219-74.443-61-135.786-71.431 11.575-122.119 284.5-68.187 50.87-110.75 293.04-109.107 105.982z"/><path fill="#dcdcdc" d="m1392.333 744.745 8.371 213.939-80.417 112.34 37.722 85.984-74.68 189.569 65.084 156.853-38.545 128.291H842.552l68.188-141.009 109.107-105.982 110.75-293.04 68.187-50.87 122.119-284.5zm-20.088 546.721 56.09-97.503-4.4-41.333 20.896-29.675 25.295 84.256-75.886 84.255zm-44-716.716 3.98 8.064 8.898 1.293-6.44 6.277 1.521 8.863-7.96-4.184-7.959 4.184 1.52-8.863-6.44-6.277 8.9-1.293zM580.294 978.022l3.98 8.064 8.898 1.293-6.438 6.277 1.52 8.864-7.96-4.185-7.959 4.185 1.52-8.864-6.44-6.277 8.9-1.293zM1619.472 279.15l3.98 8.065 8.899 1.292-6.44 6.278 1.52 8.862-7.959-4.184-7.96 4.184 1.52-8.862-6.439-6.278 8.899-1.292zM725.755 291.4l3.98 8.063 8.9 1.293-6.44 6.277 1.52 8.863-7.96-4.185-7.959 4.185 1.52-8.863-6.44-6.277 8.9-1.293zm1133.223 662.126 3.98 8.064 8.899 1.292-6.44 6.278 1.521 8.862-7.96-4.184-7.96 4.184 1.52-8.862-6.439-6.278 8.9-1.292zM982.106 560.884l3.98 8.064 8.898 1.293-6.439 6.277 1.52 8.863-7.96-4.185-7.959 4.185 1.52-8.863-6.44-6.277 8.9-1.293zM189.31 394.815l3.98 8.063 8.9 1.293-6.44 6.277 1.52 8.863-7.96-4.184-7.959 4.184 1.52-8.863-6.44-6.277 8.9-1.293zm171.719 481.474 3.98 8.064 8.898 1.292-6.439 6.277 1.52 8.863-7.96-4.184-7.958 4.184 1.52-8.863-6.44-6.277 8.899-1.292zM189.31 1013.548l2.46 4.984 5.5.8-3.98 3.879.94 5.477-4.92-2.586-4.92 2.586.94-5.477-3.98-3.88 5.5-.799zm559.545-505.873 2.46 4.983 5.499.8-3.98 3.879.94 5.478-4.92-2.587-4.919 2.587.94-5.478-3.98-3.88 5.5-.799zm413.405 442.959 2.46 4.984 5.499.8-3.98 3.879.94 5.477-4.92-2.587-4.919 2.587.94-5.477-3.98-3.88 5.5-.8zM232.522 438.022l2.46 4.984 5.5.8-3.98 3.879.94 5.477-4.92-2.587-4.92 2.587.94-5.477-3.98-3.88 5.5-.799zm1399.829 442.945 2.46 4.983 5.499.8-3.98 3.88.94 5.477-4.919-2.587-4.92 2.587.94-5.478-3.98-3.88 5.5-.799zM394.26 1115.385l2.46 4.984 5.5.799-3.98 3.88.94 5.477-4.92-2.586-4.92 2.586.94-5.478-3.98-3.879 5.5-.8zm-95.505-265.973 2.46 4.983 5.499.8-3.98 3.879.94 5.478-4.92-2.587-4.919 2.587.94-5.478-3.98-3.88 5.5-.799zm807.393-380.343 2.46 4.983 5.499.8-3.98 3.879.94 5.477-4.92-2.586-4.92 2.586.94-5.477-3.979-3.88 5.5-.799zm545.685 646.316 2.46 4.984 5.5.8-3.98 3.878.939 5.478-4.919-2.586-4.92 2.586.94-5.478-3.98-3.879 5.5-.799zm247.11-475.623 2.459 4.984 5.5.8-3.98 3.878.94 5.478-4.92-2.587-4.919 2.587.94-5.478-3.98-3.879 5.5-.8zm-217.209-7.57 2.46 4.984 5.499.8-3.98 3.879.94 5.477-4.919-2.587-4.92 2.587.94-5.477-3.98-3.88 5.5-.799zm-159.456-218.376c-18.888 33.003-54.463 55.253-95.226 55.253-60.648 0-109.757-49.15-109.757-109.798 0-52.263 36.488-95.974 85.431-107.016-35.284 16.23-59.734 51.89-59.734 93.234 0 56.705 45.994 102.658 102.697 102.658 30.47 0 57.826-13.242 76.589-34.33"/><path fill="#1a2e35" d="M150.622 1631.863c570.86-2.551 1211.233-2.57 1782.089 0-570.859 2.57-1211.233 2.55-1782.089 0"/><g fill="#375a64"><path d="M1955.712 1669.193H127.621c-10.309 0-18.665-8.357-18.665-18.665s8.356-18.665 18.665-18.665h1828.091c10.309 0 18.665 8.357 18.665 18.665s-8.356 18.665-18.665 18.665m-371.724 74.251H431.596c-10.308 0-18.665-8.356-18.665-18.665s8.357-18.665 18.665-18.665h1152.392c10.309 0 18.665 8.356 18.665 18.665s-8.356 18.665-18.665 18.665m-103.523 73.865H640.911c-10.308 0-18.665-8.357-18.665-18.665s8.357-18.665 18.665-18.665h839.554c10.308 0 18.665 8.356 18.665 18.665s-8.357 18.665-18.665 18.665M353.77 1743.444h-87.703c-10.308 0-18.665-8.356-18.665-18.665s8.357-18.665 18.665-18.665h87.703c10.308 0 18.665 8.356 18.665 18.665s-8.357 18.665-18.665 18.665m1271.755 73.865h-43.85c-10.31 0-18.666-8.357-18.666-18.665s8.357-18.665 18.665-18.665h43.851c10.309 0 18.665 8.356 18.665 18.665s-8.356 18.665-18.665 18.665"/><path d="M972.843 1706.513H489.97c5.166 0 9.833-2.083 13.208-5.458a18.6 18.6 0 0 0 5.458-13.208c0-10.292-8.333-18.667-18.666-18.667h482.874a18.6 18.6 0 0 0-13.208 5.458c-3.375 3.417-5.458 8.084-5.458 13.209a18.636 18.636 0 0 0 18.666 18.666m501.461 0h-316.731c5.166 0 9.833-2.083 13.208-5.458a18.6 18.6 0 0 0 5.458-13.208c0-10.292-8.333-18.667-18.666-18.667h316.73a18.6 18.6 0 0 0-13.208 5.458c-3.375 3.417-5.458 8.084-5.458 13.209a18.636 18.636 0 0 0 18.667 18.666m-239.537 73.865H748.854c5.167 0 9.833-2.083 13.208-5.458a18.6 18.6 0 0 0 5.459-13.209c0-10.291-8.334-18.666-18.667-18.666h485.914a18.6 18.6 0 0 0-13.209 5.458c-3.375 3.417-5.458 8.084-5.458 13.208a18.636 18.636 0 0 0 18.667 18.667"/></g><path fill="#375a64" d="M275.548 1631.535h1162.545l-212.228-523.16-102.077-51.664-108.348-249.923-71.463-90.723-62.98-165.482-73.747 14.107-126.079 346.717-70.399 61.996-152.18 357.125-112.645 129.16z"/><path fill="#2b454e" d="m880.997 550.583 8.643 260.725-83.026 136.909 38.946 104.788-77.101 231.026 67.194 191.156-39.796 156.348H275.548l70.4-171.848 112.644-129.159 152.18-357.125 70.4-61.996L807.25 564.69zm-20.74 666.285 57.908-118.826-4.541-50.372 21.573-36.165 26.116 102.682-78.347 102.681zm947.528 414.75H947.008l113.68-279.285 80.343-64.48 82.895-240.486 67.024-49.415 63.715-144.667h62.92l139.807 296.206 71.13 46.121z"/><path fill="#1a2e35" d="M947.008 1631.618h373.313v-239.993l85.101-168.011-40.545-176.247 52.707-194.082h-62.92l-63.714 144.667-67.024 49.415-82.895 240.486-80.343 64.48zm470.576 0 32.128-126.338 51.981-64.24 23.193-75.77 16.185 16.472v72.476l-39.378 57.65v120.225zm61.744-389.166 8.634-50.683 23.169-29.1 10.86 17.295-14.48 22.596 6.516 48.232zM327.854 1630.58c-4.78 4.779-60.453 6.903-80.702 6.903s-75.923-2.124-80.7-6.903c-4.779-4.777 62.648-374.835 80.7-374.835s85.48 370.058 80.702 374.835"/><path fill="#2b454e" d="M328.974 1536.282c-13.756 5.25-64.714 25.997-75.718 32.047-.006-2.319-.023-4.637-.03-6.957 12.291-7.234 24.628-14.39 36.954-21.564 13.23-7.699 27.437-14.568 39.773-23.638.602-.443.268-1.68-.563-1.335-13.599 5.663-26.227 14.06-38.91 21.5-12.527 7.344-24.912 14.912-37.265 22.543-.052-17.734-.107-35.47-.225-53.204 19.864-7.969 39.81-18.599 58.074-29.515.634-.38.211-1.547-.524-1.244-19.377 8.004-39.52 17.435-57.567 28.376-.064-9.22-.1-18.442-.198-27.663-.507-47.482-.6-95.02-1.81-142.509 12.084-6.097 24.527-11.47 36.603-17.598.79-.403.234-1.787-.614-1.456-12.254 4.78-24.058 10.458-36.084 15.743-.653-24.503-1.588-48.992-3.08-73.454-.05-.806-1.23-.817-1.262 0-1.697 45.481-1.556 91.015-.985 136.543-12.515-9.993-25.86-18.83-38.6-28.522-.493-.373-.972.46-.485.832 13.318 10.132 25.777 21.362 39.133 31.465.034 2.571.062 5.142.098 7.713-13.573-6.203-27.342-11.976-41.057-17.851-1.074-.46-2.034 1.079-.939 1.603 13.973 6.703 27.898 13.53 42.047 19.855.322 22.551.705 45.099.998 67.636.513 39.372 1.378 78.737 2.218 118.103a3031 3031 0 0 0-77.422-37.809c-.99-.466-1.85.93-.87 1.49 25.337 14.506 51.594 27.672 78.355 39.355.697 32.71 1.374 2.933 1.792 35.647.026 1.984 3.109 1.99 3.086 0-.454-41.721-.523-20.956-.637-62.68 13.51-3.337 64.548-25.195 76.673-31.179 1.246-.615.366-2.78-.96-2.273"/><path fill="#1a2e35" d="M744.458 1630.281c-4.101 4.1-51.878 5.924-69.254 5.924s-65.153-1.823-69.254-5.924c-4.1-4.1 53.763-321.665 69.254-321.665s73.354 317.565 69.254 321.665"/><path fill="#2b454e" d="M745.419 1549.358c-11.804 4.506-55.534 22.31-64.977 27.502-.006-1.99-.02-3.98-.026-5.97 10.548-6.209 21.134-12.35 31.713-18.505 11.352-6.608 23.544-12.503 34.13-20.286.517-.38.23-1.442-.482-1.145-11.671 4.86-22.507 12.066-33.392 18.449-10.75 6.304-21.379 12.797-31.978 19.347-.045-15.22-.092-30.44-.194-45.658 17.047-6.838 34.162-15.96 49.836-25.328.545-.326.182-1.328-.449-1.068-16.629 6.868-33.915 14.961-49.4 24.352-.056-7.913-.087-15.827-.17-23.74-.435-40.746-.516-81.54-1.555-122.294 10.37-5.231 21.048-9.844 31.411-15.101.68-.346.202-1.533-.526-1.25-10.516 4.102-20.646 8.975-30.965 13.51-.56-21.027-1.363-42.043-2.645-63.034-.042-.693-1.055-.701-1.082 0-1.457 39.03-1.334 78.104-.845 117.173-10.74-8.575-22.192-16.158-33.124-24.475-.423-.322-.835.396-.417.713 11.429 8.695 22.12 18.333 33.581 27.003.03 2.206.055 4.412.085 6.618-11.648-5.322-23.464-10.278-35.234-15.319-.92-.395-1.744.926-.805 1.376 11.991 5.752 23.94 11.61 36.083 17.039.276 19.35.605 38.7.856 58.041.441 33.787 1.182 67.569 1.904 101.35a2606 2606 0 0 0-66.44-32.446c-.849-.399-1.587.799-.747 1.28 21.744 12.448 44.276 23.745 67.24 33.772.6 28.07 1.18 6.867 1.54 34.94.02 1.703 2.666 1.708 2.647 0-.39-35.803-.45-22.334-.547-58.139 11.595-2.863 55.393-21.62 65.796-26.756 1.07-.528.315-2.386-.822-1.951"/><path fill="#1a2e35" d="M293.158 1631.957c3.454 3.453 43.688 4.988 58.32 4.988 14.634 0 54.867-1.535 58.32-4.988s-45.274-270.883-58.32-270.883-61.773 267.43-58.32 270.883"/><path fill="#375a64" d="M292.35 1563.81c9.94 3.793 46.765 18.787 54.718 23.159.004-1.677.017-3.352.02-5.028-8.881-5.228-17.796-10.399-26.704-15.583-9.56-5.563-19.828-10.529-28.744-17.083-.433-.319-.192-1.214.407-.965 9.829 4.092 18.954 10.162 28.12 15.538 9.052 5.307 18.004 10.776 26.93 16.292.038-12.817.077-25.634.163-38.45-14.354-5.759-28.769-13.442-41.968-21.33-.459-.274-.153-1.118.378-.899 14.004 5.784 28.56 12.599 41.602 20.508.046-6.664.072-13.328.143-19.992.366-34.314.435-68.668 1.31-102.987-8.735-4.406-17.727-8.29-26.454-12.718-.571-.29-.169-1.292.444-1.053 8.856 3.456 17.386 7.558 26.078 11.378.47-17.707 1.147-35.406 2.225-53.083.036-.583.89-.59.912 0 1.227 32.868 1.125 65.773.712 98.676 9.043-7.223 18.688-13.608 27.894-20.612.356-.27.703.333.351.6-9.625 7.322-18.628 15.438-28.28 22.74q-.034 2.786-.071 5.573c9.809-4.482 19.76-8.654 29.672-12.9.775-.333 1.47.779.678 1.159-10.098 4.843-20.161 9.778-30.386 14.348-.234 16.296-.51 32.592-.722 48.88-.37 28.452-.995 56.9-1.603 85.348a2191 2191 0 0 1 55.95-27.323c.716-.336 1.337.671.63 1.077a586 586 0 0 1-56.625 28.44c-.504 23.64-.993 5.245-1.295 28.886-.02 1.434-2.247 1.44-2.23 0 .328-30.15.378-18.269.46-48.422-9.765-2.41-46.647-18.207-55.408-22.531-.902-.446-.266-2.01.693-1.644"/><path fill="#1a2e35" d="M1769.884 1629.739c-4.409 4.41-55.787 6.37-74.474 6.37-18.686 0-70.065-1.96-74.475-6.37s57.816-345.914 74.475-345.914 78.884 341.505 74.474 345.914"/><path fill="#375a64" d="M1770.917 1542.715c-12.693 4.845-59.72 23.991-69.875 29.575-.006-2.14-.02-4.28-.026-6.42 11.341-6.676 22.726-13.28 34.102-19.9 12.208-7.104 25.32-13.444 36.704-21.815.555-.408.247-1.55-.52-1.231-12.55 5.227-24.202 12.976-35.907 19.84-11.56 6.778-22.991 13.76-34.39 20.806-.048-16.367-.098-32.735-.207-49.1 18.33-7.354 36.737-17.165 53.592-27.239.585-.35.194-1.427-.484-1.147-17.881 7.386-36.471 16.088-53.125 26.187-.058-8.51-.09-17.019-.181-25.529-.468-43.819-.555-87.687-1.672-131.513 11.152-5.626 22.635-10.586 33.779-16.241.73-.37.217-1.65-.566-1.343-11.309 4.411-22.202 9.651-33.3 14.528-.603-22.612-1.466-45.212-2.843-67.786-.045-.745-1.135-.754-1.164 0-1.567 41.972-1.435 83.992-.91 126.006-11.548-9.22-23.865-17.375-35.62-26.32-.455-.345-.898.426-.449.767 12.29 9.351 23.789 19.715 36.114 29.039.031 2.372.058 4.744.091 7.117-12.527-5.725-25.234-11.052-37.89-16.474-.991-.424-1.877.996-.866 1.48 12.894 6.185 25.745 12.486 38.803 18.322.297 20.811.65 41.62.92 62.418.474 36.334 1.272 72.662 2.048 108.99a2803 2803 0 0 0-71.45-34.891c-.912-.43-1.706.857-.802 1.374 23.382 13.387 47.613 25.537 72.31 36.32.643 30.186 1.267 7.382 1.654 37.573.023 1.831 2.868 1.836 2.847 0-.419-38.501-.482-24.017-.588-62.52 12.469-3.08 59.569-23.251 70.757-28.774 1.15-.569.338-2.566-.886-2.1"/><path fill="#1a2e35" d="M1557.357 1629.739c-4.41 4.41-55.787 6.37-74.474 6.37s-70.065-1.96-74.475-6.37 57.816-345.914 74.475-345.914 78.884 341.505 74.474 345.914"/><path fill="#375a64" d="M1558.39 1542.715c-12.692 4.845-59.72 23.991-69.875 29.575-.006-2.14-.02-4.28-.027-6.42 11.342-6.676 22.727-13.28 34.102-19.9 12.208-7.104 25.32-13.444 36.705-21.815.555-.408.246-1.55-.52-1.231-12.55 5.227-24.203 12.976-35.908 19.84-11.56 6.778-22.99 13.76-34.389 20.806-.05-16.367-.099-32.735-.208-49.1 18.33-7.354 36.737-17.165 53.592-27.239.586-.35.195-1.427-.484-1.147-17.88 7.386-36.47 16.088-53.124 26.187-.059-8.51-.091-17.019-.182-25.529-.468-43.819-.555-87.687-1.671-131.513 11.151-5.626 22.634-10.586 33.778-16.241.73-.37.218-1.65-.566-1.343-11.309 4.411-22.202 9.651-33.3 14.528-.603-22.612-1.465-45.212-2.843-67.786-.045-.745-1.135-.754-1.163 0-1.567 41.972-1.437 83.992-.91 126.006-11.55-9.22-23.865-17.375-35.62-26.32-.456-.345-.899.426-.45.767 12.292 9.351 23.79 19.715 36.115 29.039.03 2.372.057 4.744.091 7.117-12.527-5.725-25.233-11.052-37.89-16.474-.992-.424-1.877.996-.867 1.48 12.895 6.185 25.745 12.486 38.803 18.322.297 20.811.65 41.62.921 62.418.474 36.334 1.272 72.662 2.047 108.99a2802 2802 0 0 0-71.448-34.891c-.914-.43-1.707.857-.804 1.374 23.383 13.387 47.614 25.537 72.31 36.32.644 30.186 1.268 7.382 1.654 37.573.023 1.831 2.868 1.836 2.849 0-.42-38.501-.484-24.017-.59-62.52 12.47-3.08 59.569-23.251 70.757-28.774 1.15-.569.34-2.566-.885-2.1"/><path fill="#1a2e35" d="M1529.969 1633.033c3.082 3.08 38.989 4.45 52.05 4.45 13.059 0 48.966-1.37 52.048-4.45 3.083-3.083-40.406-241.756-52.049-241.756s-55.132 238.673-52.05 241.756"/><path fill="#2b454e" d="M1529.247 1572.212c8.872 3.386 41.737 16.767 48.836 20.67.003-1.496.013-2.991.017-4.487-7.927-4.666-15.883-9.281-23.833-13.907-8.533-4.966-17.696-9.397-25.652-15.247-.39-.286-.173-1.084.363-.86 8.77 3.652 16.915 9.068 25.095 13.865 8.08 4.737 16.068 9.618 24.034 14.541.035-11.438.07-22.877.146-34.316-12.811-5.139-25.675-11.995-37.455-19.036-.41-.245-.137-.998.338-.802 12.498 5.162 25.489 11.244 37.128 18.302.04-5.947.064-11.895.127-17.841.327-30.626.388-61.285 1.169-91.914-7.794-3.932-15.82-7.398-23.608-11.35-.51-.26-.152-1.153.395-.94 7.904 3.085 15.517 6.747 23.273 10.155.42-15.804 1.025-31.6 1.987-47.376.031-.52.793-.526.813 0 1.096 29.334 1.005 58.702.637 88.065 8.071-6.444 16.678-12.144 24.895-18.395.318-.241.628.297.312.536-8.589 6.535-16.624 13.778-25.239 20.294q-.03 2.488-.063 4.975c8.753-4 17.634-7.725 26.481-11.514.693-.296 1.311.697.604 1.035-9.012 4.323-17.992 8.725-27.117 12.805-.208 14.545-.455 29.088-.645 43.624-.331 25.392-.888 50.782-1.431 76.172a1956 1956 0 0 1 49.936-24.386c.637-.3 1.193.6.56.96a524 524 0 0 1-50.536 25.384c-.449 21.097-.886 4.2-1.156 25.298-.016 1.28-2.003 1.284-1.99 0 .293-26.91.337-15.824.411-42.734-8.715-2.152-41.632-16.25-49.45-20.109-.805-.397-.236-1.793.618-1.467"/><path fill="#1a2e35" d="M531.35 1632.552c3.082 3.08 38.989 4.45 52.05 4.45 13.059 0 48.966-1.37 52.048-4.45 3.082-3.083-40.406-241.756-52.049-241.756s-55.132 238.673-52.05 241.756"/><path fill="#2b454e" d="M530.628 1571.73c8.872 3.387 41.737 16.769 48.835 20.671.004-1.495.014-2.99.018-4.487-7.927-4.666-15.884-9.281-23.833-13.907-8.533-4.966-17.696-9.397-25.653-15.247-.389-.285-.173-1.083.364-.86 8.77 3.652 16.915 9.068 25.095 13.866 8.079 4.737 16.068 9.617 24.034 14.54.034-11.438.07-22.876.145-34.315-12.81-5.14-25.674-11.996-37.454-19.037-.41-.245-.137-.998.338-.802 12.498 5.162 25.489 11.245 37.128 18.303.04-5.947.064-11.896.127-17.842.326-30.625.388-61.285 1.168-91.914-7.793-3.932-15.819-7.398-23.608-11.35-.51-.259-.15-1.152.396-.939 7.904 3.084 15.517 6.746 23.272 10.154.422-15.804 1.025-31.599 1.988-47.376.031-.519.793-.526.813 0 1.096 29.335 1.004 58.702.637 88.065 8.071-6.444 16.678-12.144 24.895-18.395.317-.24.627.297.312.537-8.59 6.535-16.625 13.777-25.24 20.293q-.03 2.489-.062 4.975c8.753-4 17.634-7.725 26.481-11.514.693-.296 1.311.697.604 1.035-9.012 4.323-17.992 8.726-27.118 12.806-.208 14.544-.455 29.087-.644 43.623-.331 25.392-.888 50.783-1.431 76.172a1957 1957 0 0 1 49.935-24.386c.638-.3 1.194.6.562.961a523 523 0 0 1-50.537 25.383c-.45 21.097-.886 4.68-1.156 25.78-.016 1.279-2.004 1.283-1.99 0 .293-26.91.337-16.305.411-43.216-8.715-2.152-41.632-16.249-49.45-20.109-.805-.397-.237-1.793.618-1.467"/><path fill="#1a2e35" d="M840.512 1632.071c3.082 3.081 38.99 4.451 52.05 4.451s48.967-1.37 52.05-4.45c3.08-3.083-40.408-241.757-52.05-241.757-11.643 0-55.132 238.674-52.05 241.756"/><path fill="#2b454e" d="M839.79 1571.25c8.871 3.387 41.737 16.768 48.835 20.67.004-1.495.015-2.99.02-4.487-7.93-4.665-15.885-9.28-23.835-13.907-8.532-4.966-17.696-9.396-25.653-15.247-.387-.285-.171-1.083.363-.86 8.772 3.653 16.916 9.068 25.097 13.866 8.08 4.737 16.068 9.617 24.033 14.541.035-11.438.07-22.877.146-34.316-12.811-5.14-25.675-11.996-37.455-19.037-.409-.244-.136-.997.338-.801 12.497 5.161 25.49 11.244 37.128 18.302.042-5.947.065-11.896.128-17.841.327-30.626.387-61.285 1.168-91.915-7.794-3.932-15.82-7.398-23.608-11.35-.51-.259-.152-1.152.396-.939 7.903 3.084 15.517 6.746 23.272 10.154.42-15.804 1.025-31.599 1.987-47.375.032-.52.794-.526.813 0 1.096 29.334 1.004 58.702.637 88.064 8.072-6.444 16.678-12.143 24.895-18.395.318-.24.628.298.313.537-8.59 6.535-16.626 13.777-25.24 20.294q-.03 2.488-.063 4.974c8.754-4 17.635-7.724 26.481-11.514.693-.295 1.31.697.605 1.035-9.012 4.323-17.993 8.726-27.119 12.806-.207 14.544-.454 29.087-.643 43.624-.331 25.392-.889 50.782-1.431 76.171a1956 1956 0 0 1 49.935-24.386c.637-.3 1.192.6.561.962a524 524 0 0 1-50.536 25.383c-.45 21.097-.886 5.16-1.157 26.26-.016 1.279-2.004 1.283-1.99 0 .293-26.91.337-16.786.412-43.696-8.715-2.153-41.633-16.25-49.452-20.11-.804-.396-.236-1.793.619-1.467"/><path fill="#1a2e35" d="M1812.869 1632.071c3.082 3.081 38.989 4.451 52.049 4.451s48.967-1.37 52.05-4.45c3.081-3.083-40.408-241.757-52.05-241.757-11.643 0-55.131 238.674-52.05 241.756"/><path fill="#2b454e" d="M1812.146 1571.25c8.871 3.387 41.738 16.768 48.835 20.67.005-1.495.015-2.99.02-4.487-7.928-4.665-15.885-9.28-23.835-13.907-8.531-4.966-17.696-9.396-25.653-15.247-.387-.285-.17-1.083.364-.86 8.771 3.653 16.916 9.068 25.096 13.866 8.08 4.737 16.068 9.617 24.034 14.541.034-11.438.07-22.877.145-34.316-12.81-5.14-25.675-11.996-37.455-19.037-.409-.244-.136-.997.338-.801 12.498 5.161 25.49 11.244 37.129 18.302.041-5.947.064-11.896.127-17.841.327-30.626.388-61.285 1.169-91.915-7.795-3.932-15.82-7.398-23.608-11.35-.51-.259-.152-1.152.395-.939 7.904 3.084 15.517 6.746 23.273 10.154.42-15.804 1.024-31.599 1.987-47.375.031-.52.793-.526.813 0 1.095 29.334 1.004 58.702.636 88.064 8.072-6.444 16.679-12.143 24.895-18.395.318-.24.628.298.314.537-8.59 6.535-16.627 13.777-25.24 20.294q-.03 2.488-.063 4.974c8.754-4 17.635-7.724 26.48-11.514.693-.295 1.311.697.605 1.035-9.012 4.323-17.993 8.726-27.118 12.806-.207 14.544-.454 29.087-.644 43.624-.33 25.392-.888 50.782-1.43 76.171a1956 1956 0 0 1 49.934-24.386c.638-.3 1.193.6.562.962a524 524 0 0 1-50.536 25.383c-.45 21.097-.887 5.16-1.157 26.26-.017 1.279-2.005 1.283-1.991 0 .293-26.91.338-16.786.412-43.696-8.714-2.153-41.632-16.25-49.45-20.11-.805-.396-.238-1.793.617-1.467"/><path fill="#1a2e35" d="M1425.968 1614.902h-6.181v17.36h6.181zm-298.366 0h-6.182v17.36h6.182z"/><path fill="#ffc800" d="m1121.42 1632.262 87.064-129.487 89.371 129.487z"/><path d="m1121.42 1632.262 87.064-129.487 89.371 129.487z" opacity=".1"/><path fill="#ffc800" d="M1208.484 1502.775h127.662l88.712 129.487h-127.003z"/><path fill="#fff" d="M1262.897 1526.338h58.35l17.748 25.905h-58.218z"/><path d="M1179.875 1632.262h54.91l-26.301-129.487z" opacity=".3"/><path fill="#1a2e35" d="M1300.946 1614.902h-6.181v17.36h6.181z"/><path fill="#fff" d="M1208.484 1502.775c-21.086 42.063-45.523 88.308-68.35 129.487 21.126-42.088 45.511-88.338 68.35-129.487m0 0c22.62 40.915 46.778 86.93 67.686 128.781-22.619-40.962-46.81-86.937-67.686-128.78"/><path fill="#ffc800" d="M1179.875 1632.262s-3.96-18.35-22.922-34.509l51.53-94.978zm54.909 0-26.3-129.487 53.67 99.925s-23.744 3.053-27.37 29.562M737.74 721.74c0-.045 0-.045-.044-.045a38 38 0 0 0-3.271-3.271c0-.044 0-.044-.044-.044a38 38 0 0 0-3.271-3.271c0-.045 0-.045-.045-.045a38 38 0 0 0-3.27-3.27c0-.045 0-.045-.045-.045a38 38 0 0 0-3.271-3.272c0-.043 0-.043-.044-.043a38 38 0 0 0-3.272-3.272c0-.044 0-.044-.044-.044a38 38 0 0 0-3.271-3.271c0-.045 0-.045-.044-.045a38 38 0 0 0-3.272-3.27c0-.045 0-.045-.044-.045a38 38 0 0 0-3.27-3.271c0-.044 0-.044-.045-.044a38 38 0 0 0-3.272-3.271c0-.045 0-.045-.043-.045a48.6 48.6 0 0 0-11.627-9.327V355.052c0-1.724-.84-2.608-.84-4.332 0-2.608 0-3.492-.884-5.216 0-.885-.84-2.609-.84-3.493-.884-2.608-.884-3.492-1.768-5.216-.884-.885-1.724-2.608-1.724-3.492-1.768-2.608-2.608-3.493-3.492-4.333-.884-.884-1.724-2.607-2.609-3.492l-3.492-3.492c0-.53-.663-1.061-1.414-1.414l-1.724-1.725-.177-.177c0-.53-.663-1.06-1.415-1.414l-1.724-1.724-.176-.177c0-.53-.664-1.06-1.415-1.415l-1.724-1.723-.177-.177c0-.53-.663-1.061-1.415-1.415l-1.724-1.724-.177-.176c0-.531-.662-1.062-1.414-1.415l-1.724-1.724-.177-.177c0-.53-.663-1.061-1.414-1.415l-1.725-1.724-.176-.177c0-.53-.663-1.06-1.415-1.414l-1.724-1.724-.177-.177c0-.53-.663-1.061-1.414-1.414l-1.725-1.725-.176-.176c0-.53-.664-1.061-1.415-1.415l-1.724-1.724-.177-.177c0-.53-.663-1.06-1.414-1.414l-1.901-1.901c0-.84-1.724-1.724-2.608-1.724 0-.885-.84-.885-.84-.885-1.768-.84-2.652-1.724-4.377-2.608-.884-.884-2.608-1.724-4.332-3.492-.884 0-2.608-.84-3.492-.84-1.724-.884-4.376-.884-5.216-1.768-1.724 0-2.608 0-4.377-.84h-14.764c-.885.84-2.609.84-3.492.84-2.609.884-4.332.884-5.217 1.768-1.724 0-2.608.84-3.492 2.608-2.609 0-3.449.84-5.216 1.724-.84.884-2.608 1.768-3.493 2.608-.84.885-1.724 1.77-4.332 2.609-.84 1.768-1.724 2.608-2.608 3.492s-.884 1.724-1.724 1.724L255.94 694.288c-15.605 19.671-14.146 47.123 4.332 64.01a29.4 29.4 0 0 0 3.316 3.315 29 29 0 0 0 3.315 3.315 29.5 29.5 0 0 0 3.315 3.316 29.5 29.5 0 0 0 3.316 3.316 29.4 29.4 0 0 0 3.315 3.315 29.4 29.4 0 0 0 3.316 3.315 29.4 29.4 0 0 0 3.315 3.316 29.4 29.4 0 0 0 3.316 3.315 29.5 29.5 0 0 0 3.315 3.316 46.3 46.3 0 0 0 6.808 6.277c8.708 7.824 19.14 10.432 29.573 10.432h240.922v32.978c0 14.411 5.924 27.054 15.56 35.718l.133.133a54 54 0 0 0 3.183 3.183c.044.044.089.044.089.088 1.017 1.15 2.122 2.21 3.227 3.227l.133.132a54 54 0 0 0 3.182 3.184c.044.043.089.043.089.088 1.016 1.15 2.121 2.21 3.227 3.227l.132.133a54 54 0 0 0 3.183 3.182c.045.045.088.045.088.089 1.017 1.15 2.122 2.21 3.227 3.227l.133.133a54 54 0 0 0 3.183 3.182c.044.045.089.045.089.088 1.016 1.15 2.121 2.211 3.226 3.227l.133.133a54 54 0 0 0 3.183 3.183c.044.044.088.044.088.089 8.665 9.504 21.22 15.383 35.497 15.383 26.966 0 47.831-20.909 47.831-47.875v-66.132h8.709c26.965 0 48.715-20.865 48.715-47.83 0-13.837-6.145-26.48-15.915-35.276M567.415 535.412V676.03h-113.3z"/><path d="M737.74 721.74c0-.045 0-.045-.044-.045a38 38 0 0 0-3.271-3.271c0-.044 0-.044-.044-.044a38 38 0 0 0-3.271-3.271c0-.045 0-.045-.045-.045a38 38 0 0 0-3.27-3.27c0-.045 0-.045-.045-.045a38 38 0 0 0-3.271-3.272c0-.043 0-.043-.044-.043a38 38 0 0 0-3.272-3.272c0-.044 0-.044-.044-.044a38 38 0 0 0-3.271-3.271c0-.045 0-.045-.044-.045a38 38 0 0 0-3.272-3.27c0-.045 0-.045-.044-.045a38 38 0 0 0-3.27-3.271c0-.044 0-.044-.045-.044a38 38 0 0 0-3.272-3.271c0-.045 0-.045-.043-.045a48.6 48.6 0 0 0-11.627-9.327V355.052c0-1.724-.84-2.608-.84-4.332 0-2.608 0-3.492-.884-5.216 0-.885-.84-2.609-.84-3.493-.884-2.608-.884-3.492-1.768-5.216-.884-.885-1.724-2.608-1.724-3.492-1.768-2.608-2.608-3.493-3.492-4.333-.884-.884-1.724-2.607-2.609-3.492l-3.492-3.492c0-.53-.663-1.061-1.414-1.414l-1.724-1.725-.177-.177c0-.53-.663-1.06-1.415-1.414l-1.724-1.724-.176-.177c0-.53-.664-1.06-1.415-1.415l-1.724-1.723-.177-.177c0-.53-.663-1.061-1.415-1.415l-1.724-1.724-.177-.176c0-.531-.662-1.062-1.414-1.415l-1.724-1.724-.177-.177c0-.53-.663-1.061-1.414-1.415l-1.725-1.724-.176-.177c0-.53-.663-1.06-1.415-1.414l-1.724-1.724-.177-.177c0-.53-.663-1.061-1.414-1.414l-1.725-1.725-.176-.176c0-.53-.664-1.061-1.415-1.415l-1.724-1.724-.177-.177c0-.53-.663-1.06-1.414-1.414l-1.901-1.901c0-.84-1.724-1.724-2.608-1.724 0-.885-.84-.885-.84-.885-1.768-.84-2.652-1.724-4.377-2.608-.884-.884-2.608-1.724-4.332-3.492-.884 0-2.608-.84-3.492-.84-1.724-.884-4.376-.884-5.216-1.768-1.724 0-2.608 0-4.377-.84h-14.764c-.885.84-2.609.84-3.492.84-2.609.884-4.332.884-5.217 1.768-1.724 0-2.608.84-3.492 2.608-2.609 0-3.449.84-5.216 1.724-.84.884-2.608 1.768-3.493 2.608-.84.885-1.724 1.77-4.332 2.609-.84 1.768-1.724 2.608-2.608 3.492s-.884 1.724-1.724 1.724L255.94 694.288c-15.605 19.671-14.146 47.123 4.332 64.01a29.4 29.4 0 0 0 3.316 3.315 29 29 0 0 0 3.315 3.315 29.5 29.5 0 0 0 3.315 3.316 29.5 29.5 0 0 0 3.316 3.316 29.4 29.4 0 0 0 3.315 3.315 29.4 29.4 0 0 0 3.316 3.315 29.4 29.4 0 0 0 3.315 3.316 29.4 29.4 0 0 0 3.316 3.315 29.5 29.5 0 0 0 3.315 3.316 46.3 46.3 0 0 0 6.808 6.277c8.708 7.824 19.14 10.432 29.573 10.432h240.922v32.978c0 14.411 5.924 27.054 15.56 35.718l.133.133a54 54 0 0 0 3.183 3.183c.044.044.089.044.089.088 1.017 1.15 2.122 2.21 3.227 3.227l.133.132a54 54 0 0 0 3.182 3.184c.044.043.089.043.089.088 1.016 1.15 2.121 2.21 3.227 3.227l.132.133a54 54 0 0 0 3.183 3.182c.045.045.088.045.088.089 1.017 1.15 2.122 2.21 3.227 3.227l.133.133a54 54 0 0 0 3.183 3.182c.044.045.089.045.089.088 1.016 1.15 2.121 2.211 3.226 3.227l.133.133a54 54 0 0 0 3.183 3.183c.044.044.088.044.088.089 8.665 9.504 21.22 15.383 35.497 15.383 26.966 0 47.831-20.909 47.831-47.875v-66.132h8.709c26.965 0 48.715-20.865 48.715-47.83 0-13.837-6.145-26.48-15.915-35.276M567.415 535.412V676.03h-113.3z" opacity=".1"/><path fill="#ffc800" d="M720.519 723.86c0 26.97-21.75 47.849-48.726 47.849h-8.697v66.127c0 26.97-20.88 47.85-47.845 47.85-26.976 0-47.855-20.88-47.855-47.85v-66.127h-274.06c-10.44 0-20.881-2.608-29.584-10.44-21.75-16.53-24.357-46.107-7.827-66.992l321.91-400.215c.872 0 .872-.87 1.743-1.737.87-.87 1.741-1.74 2.612-3.482 2.602-.871 3.472-1.737 4.344-2.608.871-.87 2.612-1.742 3.483-2.613 1.742-.87 2.613-1.741 5.215-1.741.87-1.737 1.742-2.607 3.483-2.607.872-.871 2.613-.871 5.225-1.743.872 0 2.603 0 3.473-.87h14.795c1.74.87 2.612.87 4.353.87.861.872 3.474.872 5.215 1.743.871 0 2.613.87 3.484.87 1.742 1.737 3.473 2.608 4.344 3.478 1.741.871 2.613 1.743 4.354 2.613 0 0 .87 0 .87.871.871 0 2.612.866 2.612 1.737 1.743 1.741 2.603 2.612 3.474 3.482.87.866 1.741 2.609 2.613 3.479.87.871 1.74 1.742 3.483 4.349 0 .871.87 2.613 1.742 3.484.87 1.736.87 2.607 1.741 5.22 0 .866.86 2.606.86 3.478.872 1.741.872 2.607.872 5.22 0 1.74.87 2.612.87 4.349V676.01h8.698c26.976 0 48.726 21.75 48.726 47.85M567.396 461.107 394.26 676.01h173.136zm662.064-54.732c-9.902-15.074-21.307-29.043-34.038-41.42a15.5 15.5 0 0 0-1.503-1.46c-.133-.132-.266-.309-.442-.442-.398-.442-.796-.884-1.238-1.282-1.105-1.193-2.299-2.298-3.448-3.448-.089-.088-.22-.22-.31-.265q-.596-.597-1.194-1.193c-.132-.133-.264-.31-.441-.443-.398-.442-.796-.884-1.238-1.282-1.105-1.193-2.298-2.298-3.448-3.447-.088-.09-.22-.222-.31-.266l-1.193-1.193c-.132-.133-.265-.31-.442-.443-.398-.442-.795-.884-1.238-1.281-1.105-1.194-2.299-2.3-3.448-3.449-.089-.088-.22-.22-.309-.265l-1.194-1.193c-.133-.133-.265-.31-.442-.442-.398-.442-.796-.885-1.238-1.282-1.105-1.194-2.299-2.299-3.448-3.449-.088-.088-.22-.22-.31-.265-.397-.442-.75-.84-1.193-1.193-.132-.133-.265-.31-.442-.442-34.923-36.028-80.499-59.855-131.6-59.855-68.74 0-125.28 40.89-161.838 96.545-38.282 55.7-58.263 127.932-59.147 207.945.884 79.173 20.865 152.245 59.147 207.944 9.857 14.72 21.13 28.557 33.685 40.846.574.575 1.15 1.105 1.724 1.68a.54.54 0 0 1 .22.22c1.017 1.062 2.078 2.08 3.095 3.095.53.575 1.06 1.105 1.591 1.636.575.575 1.15 1.105 1.725 1.68a.53.53 0 0 1 .22.221c1.018 1.061 2.078 2.078 3.095 3.094.53.575 1.06 1.106 1.591 1.636.575.575 1.15 1.105 1.724 1.68a.54.54 0 0 1 .222.22c1.016 1.062 2.077 2.079 3.094 3.096.53.574 1.06 1.105 1.591 1.635.575.574 1.15 1.105 1.724 1.68a.53.53 0 0 1 .221.22c1.017 1.062 2.078 2.079 3.095 3.095.53.575 1.06 1.105 1.591 1.636.575.574 1.15 1.105 1.724 1.68a.54.54 0 0 1 .221.22c1.017 1.061 2.078 2.079 3.095 3.095 34.392 34.348 78.73 57.379 129.744 57.379 66.971 0 124.395-41.774 160.953-96.59 37.398-55.698 58.308-128.771 58.308-207.943 0-80.013-20.91-152.245-58.308-207.945m-113.21 328.803c-25.243 37.398-53.932 53.931-80.898 53.931-14.853 0-30.502-4.995-45.885-15.781-1.238-1.592-2.432-3.271-3.625-4.995-24.357-36.559-41.774-92.214-41.774-154.013 0-62.64 17.417-117.456 41.774-154.854 26.125-36.559 55.7-53.931 82.665-53.091 14.322-.442 29.131 4.244 43.675 14.278 1.37 1.857 2.741 3.714 4.067 5.659 24.358 37.398 41.774 92.213 41.774 154.853 0 61.8-17.416 117.455-41.774 154.013"/><path d="M1229.46 406.375c-9.902-15.074-21.307-29.043-34.038-41.42a15.5 15.5 0 0 0-1.503-1.46c-.133-.132-.266-.309-.442-.442-.398-.442-.796-.884-1.238-1.282-1.105-1.193-2.299-2.298-3.448-3.448-.089-.088-.22-.22-.31-.265q-.596-.597-1.194-1.193c-.132-.133-.264-.31-.441-.443-.398-.442-.796-.884-1.238-1.282-1.105-1.193-2.298-2.298-3.448-3.447-.088-.09-.22-.222-.31-.266l-1.193-1.193c-.132-.133-.265-.31-.442-.443-.398-.442-.795-.884-1.238-1.281-1.105-1.194-2.299-2.3-3.448-3.449-.089-.088-.22-.22-.309-.265l-1.194-1.193c-.133-.133-.265-.31-.442-.442-.398-.442-.796-.885-1.238-1.282-1.105-1.194-2.299-2.299-3.448-3.449-.088-.088-.22-.22-.31-.265-.397-.442-.75-.84-1.193-1.193-.132-.133-.265-.31-.442-.442-34.923-36.028-80.499-59.855-131.6-59.855-68.74 0-125.28 40.89-161.838 96.545-38.282 55.7-58.263 127.932-59.147 207.945.884 79.173 20.865 152.245 59.147 207.944 9.857 14.72 21.13 28.557 33.685 40.846.574.575 1.15 1.105 1.724 1.68a.54.54 0 0 1 .22.22c1.017 1.062 2.078 2.08 3.095 3.095.53.575 1.06 1.105 1.591 1.636.575.575 1.15 1.105 1.725 1.68a.53.53 0 0 1 .22.221c1.018 1.061 2.078 2.078 3.095 3.094.53.575 1.06 1.106 1.591 1.636.575.575 1.15 1.105 1.724 1.68a.54.54 0 0 1 .222.22c1.016 1.062 2.077 2.079 3.094 3.096.53.574 1.06 1.105 1.591 1.635.575.574 1.15 1.105 1.724 1.68a.53.53 0 0 1 .221.22c1.017 1.062 2.078 2.079 3.095 3.095.53.575 1.06 1.105 1.591 1.636.575.574 1.15 1.105 1.724 1.68a.54.54 0 0 1 .221.22c1.017 1.061 2.078 2.079 3.095 3.095 34.392 34.348 78.73 57.379 129.744 57.379 66.971 0 124.395-41.774 160.953-96.59 37.398-55.698 58.308-128.771 58.308-207.943 0-80.013-20.91-152.245-58.308-207.945m-113.21 328.803c-25.243 37.398-53.932 53.931-80.898 53.931-14.853 0-30.502-4.995-45.885-15.781-1.238-1.592-2.432-3.271-3.625-4.995-24.357-36.559-41.774-92.214-41.774-154.013 0-62.64 17.417-117.456 41.774-154.854 26.125-36.559 55.7-53.931 82.665-53.091 14.322-.442 29.131 4.244 43.675 14.278 1.37 1.857 2.741 3.714 4.067 5.659 24.358 37.398 41.774 92.213 41.774 154.853 0 61.8-17.416 117.455-41.774 154.013" opacity=".1"/><path fill="#ffc800" d="M814.361 581.176c.871-80.045 20.88-152.258 59.165-207.94 36.534-55.681 93.087-96.575 161.821-96.575 66.998 0 124.411 40.894 160.966 96.576 37.405 55.681 58.284 127.894 58.284 207.939 0 79.169-20.88 152.252-58.284 207.934-36.555 54.817-93.968 96.575-160.966 96.575-68.734 0-125.287-41.758-161.82-96.575-38.287-55.682-58.295-128.765-59.166-207.934m343.656 0c0-62.644-17.397-117.455-41.76-154.87-25.233-36.54-53.934-53.94-80.91-53.07-26.975-.87-56.553 16.53-82.646 53.07-24.363 37.415-41.77 92.226-41.77 154.87 0 61.773 17.407 117.454 41.77 153.994 26.093 37.41 55.671 53.94 82.646 53.94s55.677-16.53 80.91-53.94c24.363-36.54 41.76-92.22 41.76-153.994m664.186 140.564c0-.045 0-.045-.045-.045a57 57 0 0 0-3.27-3.271c0-.044 0-.044-.045-.044a57 57 0 0 0-3.271-3.271c0-.045 0-.045-.045-.045a57 57 0 0 0-3.27-3.27c0-.045 0-.045-.045-.045a57 57 0 0 0-3.271-3.272c0-.043 0-.043-.044-.043a57 57 0 0 0-3.272-3.272c0-.044 0-.044-.044-.044a57 57 0 0 0-3.271-3.271c0-.045 0-.045-.044-.045a57 57 0 0 0-3.272-3.27c0-.045 0-.045-.044-.045a57 57 0 0 0-3.27-3.271c0-.044 0-.044-.045-.044a57 57 0 0 0-3.271-3.271c0-.045 0-.045-.045-.045-3.36-3.669-7.293-6.851-11.67-9.327V355.052c0-1.724-.84-2.608-.84-4.332 0-2.608 0-3.492-.884-5.216 0-.885-.84-2.609-.84-3.493-.884-2.608-.884-3.492-1.768-5.216-.84-.885-1.724-2.608-1.724-3.492-1.724-2.608-2.608-3.493-3.492-4.333-.884-.884-1.724-2.607-2.609-3.492l-3.492-3.492c0-.53-.663-1.061-1.415-1.414l-1.724-1.725-.176-.177c0-.53-.664-1.06-1.415-1.414l-1.724-1.724-.177-.177c0-.53-.663-1.06-1.414-1.415l-1.724-1.723-.177-.177c0-.53-.663-1.061-1.415-1.415l-1.724-1.724-.177-.176c0-.531-.663-1.062-1.414-1.415l-1.725-1.724-.176-.177c0-.53-.663-1.061-1.414-1.415l-1.725-1.724-.176-.177c0-.53-.663-1.06-1.415-1.414l-1.724-1.724-.177-.177c0-.53-.663-1.061-1.414-1.414l-1.725-1.725-.176-.176c0-.53-.664-1.061-1.415-1.415l-1.724-1.724-.177-.177c0-.53-.663-1.06-1.414-1.414l-1.901-1.901c0-.84-1.724-1.724-2.608-1.724 0-.885-.885-.885-.885-.885-1.723-.84-2.608-1.724-4.332-2.608-.884-.884-2.608-1.724-4.332-3.492-.884 0-2.608-.84-3.492-.84-1.724-.884-4.332-.884-5.217-1.768-1.767 0-2.607 0-4.376-.84h-14.764c-.885.84-2.609.84-3.493.84-2.608.884-4.332.884-5.216 1.768-1.724 0-2.608.84-3.492 2.608-2.564 0-3.449.84-5.217 1.724-.84.884-2.608 1.768-3.448 2.608-.884.885-1.768 1.77-4.376 2.609-.884 1.768-1.724 2.608-2.608 3.492s-.884 1.724-1.724 1.724l-321.907 400.24c-15.605 19.671-14.146 47.123 4.332 64.01a29.5 29.5 0 0 0 3.315 3.315 29 29 0 0 0 3.316 3.315 29.4 29.4 0 0 0 3.315 3.316 29.4 29.4 0 0 0 3.316 3.316 29.4 29.4 0 0 0 3.315 3.315 29 29 0 0 0 3.316 3.315 29.4 29.4 0 0 0 3.315 3.316 29.4 29.4 0 0 0 3.316 3.315 29.4 29.4 0 0 0 3.315 3.316 46.3 46.3 0 0 0 6.808 6.277c8.708 7.824 19.14 10.432 29.573 10.432h240.922v32.978c0 14.367 5.924 27.054 15.56 35.718.045.044.089.044.089.088 1.017 1.15 2.122 2.21 3.227 3.228l.133.132a54 54 0 0 0 3.183 3.183c.044.044.088.044.088.089 1.017 1.15 2.122 2.21 3.227 3.227l.132.132a54 54 0 0 0 3.183 3.183c.045.044.09.044.09.088 1.015 1.15 2.121 2.21 3.226 3.227l.133.133a54 54 0 0 0 3.182 3.183c.045.044.089.044.089.088 1.016 1.15 2.122 2.21 3.227 3.227l.132.133a54 54 0 0 0 3.183 3.182c.044.045.089.045.089.09 1.017 1.149 2.122 2.21 3.227 3.226l.132.133c8.665 9.504 21.175 15.339 35.453 15.339 26.966 0 47.83-20.909 47.83-47.875v-66.132h8.71c27.01 0 48.759-20.865 48.759-47.83 0-13.837-6.145-26.48-15.914-35.276m-170.37-186.328V676.03h-113.3z"/><path d="M1822.203 721.74c0-.045 0-.045-.045-.045a57 57 0 0 0-3.27-3.271c0-.044 0-.044-.045-.044a57 57 0 0 0-3.271-3.271c0-.045 0-.045-.045-.045a57 57 0 0 0-3.27-3.27c0-.045 0-.045-.045-.045a57 57 0 0 0-3.271-3.272c0-.043 0-.043-.044-.043a57 57 0 0 0-3.272-3.272c0-.044 0-.044-.044-.044a57 57 0 0 0-3.271-3.271c0-.045 0-.045-.044-.045a57 57 0 0 0-3.272-3.27c0-.045 0-.045-.044-.045a57 57 0 0 0-3.27-3.271c0-.044 0-.044-.045-.044a57 57 0 0 0-3.271-3.271c0-.045 0-.045-.045-.045-3.36-3.669-7.293-6.851-11.67-9.327V355.052c0-1.724-.84-2.608-.84-4.332 0-2.608 0-3.492-.884-5.216 0-.885-.84-2.609-.84-3.493-.884-2.608-.884-3.492-1.768-5.216-.84-.885-1.724-2.608-1.724-3.492-1.724-2.608-2.608-3.493-3.492-4.333-.884-.884-1.724-2.607-2.609-3.492l-3.492-3.492c0-.53-.663-1.061-1.415-1.414l-1.724-1.725-.176-.177c0-.53-.664-1.06-1.415-1.414l-1.724-1.724-.177-.177c0-.53-.663-1.06-1.414-1.415l-1.724-1.723-.177-.177c0-.53-.663-1.061-1.415-1.415l-1.724-1.724-.177-.176c0-.531-.663-1.062-1.414-1.415l-1.725-1.724-.176-.177c0-.53-.663-1.061-1.414-1.415l-1.725-1.724-.176-.177c0-.53-.663-1.06-1.415-1.414l-1.724-1.724-.177-.177c0-.53-.663-1.061-1.414-1.414l-1.725-1.725-.176-.176c0-.53-.664-1.061-1.415-1.415l-1.724-1.724-.177-.177c0-.53-.663-1.06-1.414-1.414l-1.901-1.901c0-.84-1.724-1.724-2.608-1.724 0-.885-.885-.885-.885-.885-1.723-.84-2.608-1.724-4.332-2.608-.884-.884-2.608-1.724-4.332-3.492-.884 0-2.608-.84-3.492-.84-1.724-.884-4.332-.884-5.217-1.768-1.767 0-2.607 0-4.376-.84h-14.764c-.885.84-2.609.84-3.493.84-2.608.884-4.332.884-5.216 1.768-1.724 0-2.608.84-3.492 2.608-2.564 0-3.449.84-5.217 1.724-.84.884-2.608 1.768-3.448 2.608-.884.885-1.768 1.77-4.376 2.609-.884 1.768-1.724 2.608-2.608 3.492s-.884 1.724-1.724 1.724l-321.907 400.24c-15.605 19.671-14.146 47.123 4.332 64.01a29.5 29.5 0 0 0 3.315 3.315 29 29 0 0 0 3.316 3.315 29.4 29.4 0 0 0 3.315 3.316 29.4 29.4 0 0 0 3.316 3.316 29.4 29.4 0 0 0 3.315 3.315 29 29 0 0 0 3.316 3.315 29.4 29.4 0 0 0 3.315 3.316 29.4 29.4 0 0 0 3.316 3.315 29.4 29.4 0 0 0 3.315 3.316 46.3 46.3 0 0 0 6.808 6.277c8.708 7.824 19.14 10.432 29.573 10.432h240.922v32.978c0 14.367 5.924 27.054 15.56 35.718.045.044.089.044.089.088 1.017 1.15 2.122 2.21 3.227 3.228l.133.132a54 54 0 0 0 3.183 3.183c.044.044.088.044.088.089 1.017 1.15 2.122 2.21 3.227 3.227l.132.132a54 54 0 0 0 3.183 3.183c.045.044.09.044.09.088 1.015 1.15 2.121 2.21 3.226 3.227l.133.133a54 54 0 0 0 3.182 3.183c.045.044.089.044.089.088 1.016 1.15 2.122 2.21 3.227 3.227l.132.133a54 54 0 0 0 3.183 3.182c.044.045.089.045.089.09 1.017 1.149 2.122 2.21 3.227 3.226l.132.133c8.665 9.504 21.175 15.339 35.453 15.339 26.966 0 47.83-20.909 47.83-47.875v-66.132h8.71c27.01 0 48.759-20.865 48.759-47.83 0-13.837-6.145-26.48-15.914-35.276m-170.37-186.328V676.03h-113.3z" opacity=".1"/><path fill="#ffc800" d="M1804.945 723.86c0 26.97-21.751 47.849-48.727 47.849h-8.708v66.127c0 26.97-20.879 47.85-47.833 47.85-26.976 0-47.855-20.88-47.855-47.85v-66.127h-274.067c-10.45 0-20.88-2.608-29.588-10.44-21.75-16.53-24.363-46.107-7.817-66.992l321.9-400.215c.872 0 .872-.87 1.742-1.737.87-.87 1.743-1.74 2.613-3.482 2.612-.871 3.484-1.737 4.354-2.608.871-.87 2.612-1.742 3.484-2.613 1.74-.87 2.612-1.741 5.203-1.741.872-1.737 1.742-2.607 3.484-2.607.871-.871 2.612-.871 5.225-1.743.871 0 2.613 0 3.484-.87h14.783c1.741.87 2.613.87 4.354.87.871.872 3.483.872 5.225 1.743.871 0 2.613.87 3.484.87 1.741 1.737 3.462 2.608 4.333 3.478 1.742.871 2.613 1.743 4.354 2.613 0 0 .872 0 .872.871.87 0 2.612.866 2.612 1.737l3.483 3.482c.871.866 1.741 2.609 2.613 3.479s1.741 1.742 3.484 4.349c0 .871.87 2.613 1.74 3.484.872 1.736.872 2.607 1.742 5.22 0 .866.85 2.606.85 3.478.871 1.741.871 2.607.871 5.22 0 1.74.871 2.612.871 4.349V676.01h8.708c26.976 0 48.727 21.75 48.727 47.85m-153.123-262.752L1478.668 676.01h173.154z"/><path fill="#1a2e35" d="M769.298 1892.973h-8.112v14.312c0 1.978-1.648 3.627-3.693 3.627-1.978 0-3.626-1.649-3.626-3.627v-38.91a3.616 3.616 0 0 1 3.626-3.626h11.805c7.849 0 14.18 6.33 14.18 14.178 0 7.717-6.331 14.046-14.18 14.046m-8.112-7.32h8.112a6.827 6.827 0 0 0 6.859-6.726c-.067-3.824-3.033-6.859-6.86-6.859h-8.11zm50.049 14.377h-16.026l-3.23 8.573a3.7 3.7 0 0 1-3.431 2.309 3.9 3.9 0 0 1-1.253-.199c-1.912-.726-2.836-2.835-2.176-4.748l14.574-38.842c.594-1.452 2.044-2.374 3.495-2.308 1.518-.066 2.902.856 3.496 2.308l14.574 38.842c.66 1.913-.264 4.022-2.176 4.748-.33.132-.792.199-1.254.199-1.45 0-2.835-.859-3.362-2.309zm-2.704-7.253-5.343-14.18-5.34 14.18zm17.599-5.541c0-13.254 10.947-23.807 24.333-23.807 5.607 0 10.948 1.914 15.036 5.144 1.715 1.253 1.979 3.693.726 5.343-1.254 1.582-3.694 1.912-5.343.592-2.834-2.176-6.462-3.56-10.419-3.56-4.748 0-8.903 1.78-11.87 4.814-3.1 2.967-4.946 6.99-4.946 11.474 0 4.353 1.846 8.375 4.946 11.344 2.967 3.033 7.122 4.814 11.87 4.814 3.298 0 6.397-.99 9.035-2.506v-9.035h-9.43c-2.045 0-3.76-1.715-3.76-3.759 0-2.11 1.715-3.692 3.76-3.692h13.123c2.11 0 3.825 1.582 3.825 3.692v14.574c0 .462-.132.726-.198 1.12-.066.133-.066.199-.13.33v.067c-.199.593-.595 1.122-1.255 1.582a24.33 24.33 0 0 1-14.97 5.145c-13.386 0-24.333-10.486-24.333-23.676m55.713 20.049v-38.91c0-2.044 1.582-3.626 3.626-3.626h21.566c1.912 0 3.626 1.582 3.626 3.626 0 2.045-1.714 3.693-3.626 3.693h-17.873v12.07h15.366c1.978 0 3.627 1.714 3.627 3.626 0 2.044-1.649 3.693-3.627 3.693h-15.366v12.134h17.873c1.912 0 3.626 1.65 3.626 3.694 0 1.978-1.714 3.627-3.626 3.627h-21.368c-.132 0-.132-.067-.132-.067l-.066.067a3.616 3.616 0 0 1-3.626-3.627m66.129 0c0 1.978-1.648 3.627-3.56 3.627a3.616 3.616 0 0 1-3.627-3.627v-38.382c-.066-1.121.46-2.308 1.45-3.034 1.648-1.12 3.89-.79 5.012.792l21.302 29.478v-27.17c0-1.912 1.582-3.56 3.56-3.56 1.979 0 3.627 1.648 3.627 3.56v38.316c0 1.978-1.648 3.627-3.626 3.627-1.057 0-2.045-.529-2.705-1.319-.132-.132-.264-.264-.33-.396l-21.103-29.28zm76.688-36.799c4.09 4.352 6.66 10.155 6.66 16.684a24.1 24.1 0 0 1-6.66 16.685c-3.89 4.286-9.694 7.057-15.76 7.057-6.332 0-12.135-2.77-16.157-7.057-4.089-4.287-6.53-10.156-6.53-16.685s2.441-12.332 6.53-16.684a22 22 0 0 1 16.156-7.057c6.067 0 11.87 2.704 15.76 7.057m-.857 16.684c0-4.485-1.78-8.64-4.485-11.54-2.77-2.968-6.462-4.682-10.419-4.682-4.22 0-7.913 1.714-10.684 4.682-2.77 2.9-4.484 7.055-4.484 11.54s1.714 8.64 4.484 11.476c2.77 2.967 6.463 4.748 10.684 4.748 3.957 0 7.65-1.781 10.42-4.748 2.704-2.837 4.484-6.991 4.484-11.476m45.097-15.102h-10.486v35.217c0 2.044-1.58 3.627-3.625 3.627a3.616 3.616 0 0 1-3.628-3.627v-35.217h-10.42c-2.044 0-3.628-1.714-3.628-3.693 0-2.044 1.584-3.626 3.628-3.626h28.159a3.616 3.616 0 0 1 3.628 3.626c0 1.979-1.648 3.693-3.628 3.693m34.28 35.217v-38.91a3.615 3.615 0 0 1 3.625-3.626h21.566c1.913 0 3.625 1.648 3.625 3.626 0 2.045-1.712 3.693-3.625 3.693h-17.874v12.07h15.367c1.98 0 3.628 1.714 3.628 3.626 0 2.044-1.648 3.693-3.628 3.693h-15.367v15.828c0 1.978-1.648 3.627-3.692 3.627a3.615 3.615 0 0 1-3.625-3.627m74.973-36.799c4.088 4.352 6.661 10.155 6.661 16.684a24.1 24.1 0 0 1-6.66 16.685c-3.893 4.286-9.695 7.057-15.763 7.057-6.33 0-12.134-2.77-16.155-7.057-4.089-4.287-6.53-10.156-6.53-16.685s2.441-12.332 6.53-16.684a22 22 0 0 1 16.155-7.057c6.068 0 11.87 2.704 15.762 7.057m-.857 16.684c0-4.485-1.78-8.64-4.484-11.54-2.772-2.968-6.465-4.682-10.421-4.682-4.22 0-7.913 1.714-10.682 4.682-2.772 2.9-4.485 7.055-4.485 11.54s1.713 8.64 4.485 11.476c2.769 2.967 6.461 4.748 10.682 4.748 3.956 0 7.65-1.781 10.421-4.748 2.704-2.837 4.484-6.991 4.484-11.476m36.657 23.742c-10.618 0-19.06-8.574-19.06-19.06v-23.477c0-2.044 1.581-3.626 3.625-3.626 1.98 0 3.693 1.582 3.693 3.626v23.478c0 6.463 5.277 11.738 11.742 11.738 6.528 0 11.738-5.275 11.738-11.738v-23.478c0-2.044 1.648-3.626 3.692-3.626s3.628 1.582 3.628 3.626v23.478c0 10.485-8.508 19.059-19.058 19.059m40.808-3.627c0 1.978-1.647 3.627-3.56 3.627a3.617 3.617 0 0 1-3.628-3.627v-38.382c-.065-1.121.463-2.308 1.451-3.034 1.649-1.12 3.89-.79 5.013.792l21.3 29.478v-27.17c0-1.912 1.584-3.56 3.56-3.56 1.98 0 3.629 1.648 3.629 3.56v38.316c0 1.978-1.649 3.627-3.629 3.627-1.056 0-2.044-.529-2.704-1.319-.132-.132-.264-.264-.329-.396l-21.102-29.28zm40.285 0v-38.91c0-2.044 1.58-3.626 3.625-3.626h7.781c12.73 0 23.015 10.354 23.015 23.015 0 12.794-10.286 23.148-23.015 23.148h-7.781a3.615 3.615 0 0 1-3.625-3.627m7.317-3.694h4.09a15.76 15.76 0 0 0 15.697-15.827c0-8.639-6.993-15.696-15.698-15.696h-4.089z"/><g fill="#ffc800"><path d="M1113.582 1580.888c0 24.462-19.831 44.293-44.294 44.293s-44.293-19.83-44.293-44.293 19.83-44.294 44.293-44.294 44.294 19.831 44.294 44.294" opacity=".2"/><path d="M1103.303 1590.962c0 18.786-15.229 34.015-34.015 34.015-18.785 0-34.015-15.23-34.015-34.015 0-18.786 15.23-34.015 34.015-34.015 18.786 0 34.015 15.229 34.015 34.015" opacity=".2"/></g><path fill="#ffc800" d="M1072.333 1624.877s-27.022-3.95-28.643-2.907-3.089 8.92.173 10.837c3.262 1.918 28.03-1.572 28.03-1.572s2.682-2.364.44-6.358"/><path d="M1072.333 1624.877s-27.022-3.95-28.643-2.907-3.089 8.92.173 10.837c3.262 1.918 28.03-1.572 28.03-1.572s2.682-2.364.44-6.358" opacity=".49"/><path fill="#fff" d="M1043.824 1622.271c.818-.184 2.135 2.521 1.833 5.534-.288 2.866-1.364 4.777-1.81 4.718-.446-.058-1.96-1.73-1.708-5.426.184-2.687 1.001-4.672 1.685-4.826" opacity=".2"/><g opacity=".2"><path d="M1046.658 1623.025a39 39 0 0 1 4.665-.055 28 28 0 0 1 2.338.202c.392.052.781.12 1.178.22.416.107.716.19 1.104.253 1.487.26 3.036.363 4.572.5q2.31.174 4.633.394-2.326.217-4.66.188c-1.557-.018-3.11-.086-4.678-.347-.377-.062-.823-.192-1.156-.281-.352-.097-.728-.161-1.101-.229-.75-.135-1.514-.22-2.278-.32zm3.07 1.44q1.65.235 3.27.55c1.082.193 2.161.427 3.225.566 1.033.145 2.135.064 3.229.044q1.644-.072 3.313-.085a24 24 0 0 1-3.263.667c-1.101.138-2.217.26-3.377.115-1.123-.162-2.196-.43-3.262-.742a28 28 0 0 1-3.135-1.115m13.267 2.538c1.403-.995 3.07-1.694 4.864-1.791.891-.046 1.8.075 2.66.439.425.187.835.438 1.173.8.168.185.325.377.43.67.025.07.05.168.048.283a1 1 0 0 1-.044.203c-.019.046-.037.076-.057.114a1.7 1.7 0 0 1-.246.329 4.57 4.57 0 0 1-2.443 1.304 2.95 2.95 0 0 1-1.433-.106 6.4 6.4 0 0 1-1.224-.558c-.375-.254-.802-.47-1.014-1.042a.58.58 0 0 1 .07-.493.75.75 0 0 1 .347-.268c.232-.096.452-.14.675-.17a5.6 5.6 0 0 1 1.322.014c.43.06.88.171 1.214.456-.774-.38-1.674-.28-2.47-.11-.199.05-.4.107-.559.19-.162.095-.188.147-.146.248.1.25.491.5.837.67.363.174.759.318 1.146.438.355.108.739.109 1.113.033a3.95 3.95 0 0 0 2.015-1.112 1 1 0 0 0 .144-.181l.018-.027a.05.05 0 0 0-.006.046c-.002.01.002 0-.01-.032a1.2 1.2 0 0 0-.264-.402c-.241-.274-.579-.483-.93-.655-.71-.346-1.54-.471-2.36-.508-.823-.033-1.659.114-2.473.33-.822.208-1.62.519-2.397.888"/><path d="M1071.985 1629.618a9.4 9.4 0 0 1-3.356 1.08 8.3 8.3 0 0 1-1.805.032c-.604-.067-1.211-.234-1.766-.428-1.126-.405-2.156-1.003-3.158-1.538a11 11 0 0 0-3.228-1.13 7.5 7.5 0 0 1 3.472.599c1.098.45 2.1.996 3.168 1.366 1.05.412 2.133.556 3.271.52a16.2 16.2 0 0 0 3.402-.5m-26.327 2.308q2.091.006 4.164.042c1.372-.002 2.78.046 4.076-.15 1.385-.293 2.827-.283 4.21-.22 1.395.06 2.782.217 4.157.453l-4.161.13c-1.386.058-2.743.077-4.077.373-1.454.202-2.84.11-4.235-.005a34 34 0 0 1-4.134-.623m18.744-.887c-1.152-.284-2.296-.59-3.453-.825a23 23 0 0 0-1.728-.326 4.4 4.4 0 0 0-1.684.04c-1.146.223-2.31.475-3.486.68q-.884.153-1.792.229c-.606.044-1.227.068-1.88-.072-.587-.14-1.17-.306-1.746-.52-.57-.236-1.16-.455-1.66-1.004-.117-.147-.235-.323-.273-.547-.055-.22-.002-.456.08-.64.217-.429.582-.566.877-.698.618-.22 1.23-.283 1.84-.308a10 10 0 0 1 1.82.093c.598.1 1.212.2 1.766.59.127.098.285.21.315.483-.028.3-.259.376-.39.438-.304.117-.603.154-.901.19-.597.065-1.192.07-1.785.043.59-.055 1.18-.127 1.754-.238.505-.107 1.405-.353.79-.62-.438-.273-1.04-.363-1.604-.417a9.6 9.6 0 0 0-1.728.012c-.568.058-1.142.156-1.639.345-.235.103-.448.24-.491.362-.065.168-.034.28.11.454.306.331.853.581 1.374.776.536.194 1.095.347 1.66.477 1.039.215 2.247.024 3.393-.126 1.164-.16 2.318-.403 3.512-.549.299-.034.602-.071.925-.06.327.008.622.067.92.122.593.12 1.17.272 1.742.439 1.136.356 2.261.732 3.362 1.177m-7.628-3.342c-1.592-.267-3.113-.69-4.634-1.1l-2.273-.617c-.763-.179-1.51-.392-2.314-.405.767-.3 1.624-.246 2.419-.17.805.091 1.59.27 2.366.471 1.54.441 3.043.998 4.436 1.82"/></g><path fill="#ffc800" d="M1068.598 1624.707s27.063-3.655 28.673-2.594 2.991 8.953-.292 10.835c-3.282 1.881-28.01-1.879-28.01-1.879s-2.657-2.392-.37-6.362"/><path d="M1068.598 1624.707s27.063-3.655 28.673-2.594 2.991 8.953-.292 10.835c-3.282 1.881-28.01-1.879-28.01-1.879s-2.657-2.392-.37-6.362" opacity=".49"/><path fill="#fff" d="M1097.134 1622.413c-.817-.194-2.163 2.497-1.894 5.513.257 2.87 1.312 4.792 1.759 4.738s1.978-1.709 1.766-5.407c-.153-2.69-.95-4.682-1.631-4.844" opacity=".2"/><g opacity=".2"><path d="m1069.573 1630.28 4.64.253c.77.03 1.537.073 2.3.066.378-.005.759-.005 1.123-.042.343-.032.804-.085 1.186-.084 1.59.006 3.133.197 4.671.44q2.306.36 4.562.964a244 244 0 0 1-4.633-.385c-1.537-.123-3.081-.28-4.59-.272-.395-.002-.704.03-1.132.065-.408.032-.803.034-1.198.02a28 28 0 0 1-2.34-.192 39 39 0 0 1-4.59-.834m2.815-.081a28 28 0 0 1 3.212-.868c1.087-.227 2.178-.41 3.31-.484 1.168-.054 2.27.154 3.358.379 1.087.23 2.154.54 3.2.919a95 95 0 0 1-3.295-.343c-1.09-.106-2.182-.273-3.223-.208-1.071.054-2.166.204-3.259.312a66 66 0 0 1-3.303.293m13.424-1.494c.747.428 1.518.8 2.321 1.071.795.28 1.616.492 2.44.523.82.027 1.658-.033 2.393-.323.363-.144.715-.325.978-.58.13-.119.25-.27.294-.38.015-.03.012-.04.012-.031a.05.05 0 0 0 .003.046l-.016-.028a1 1 0 0 0-.13-.192 3.94 3.94 0 0 0-1.921-1.265 2.3 2.3 0 0 0-1.112-.054 8.4 8.4 0 0 0-1.178.346c-.357.143-.766.361-.885.602-.051.098-.029.152.125.26.152.095.348.168.542.232.78.232 1.67.403 2.471.084-.355.257-.812.334-1.245.36q-.66.035-1.32-.09a2.7 2.7 0 0 1-.659-.222.75.75 0 0 1-.325-.294.58.58 0 0 1-.031-.497c.256-.554.698-.736 1.092-.96a6.4 6.4 0 0 1 1.264-.46 2.95 2.95 0 0 1 1.437.006 4.57 4.57 0 0 1 2.334 1.49c.077.1.149.198.218.347.018.04.033.071.049.119a1 1 0 0 1 .028.206.8.8 0 0 1-.07.277c-.128.285-.299.464-.481.635a3.5 3.5 0 0 1-1.232.707c-.885.296-1.801.345-2.686.23-1.78-.237-3.388-1.064-4.71-2.165"/><path d="M1094.978 1626.798a16.2 16.2 0 0 0-3.352-.764c-1.132-.125-2.222-.066-3.302.262-1.093.285-2.135.751-3.265 1.114a7.5 7.5 0 0 1-3.508.326c1.17-.118 2.263-.42 3.306-.873 1.041-.456 2.114-.972 3.269-1.288.568-.15 1.186-.27 1.794-.288a8.3 8.3 0 0 1 1.797.172 9.4 9.4 0 0 1 3.26 1.339m-16.187-2.59a34 34 0 0 1 4.132-.64c1.395-.119 2.78-.217 4.235-.02 1.335.29 2.692.305 4.079.357l4.161.114c-1.374.242-2.76.404-4.155.47-1.382.068-2.824.084-4.21-.204-1.298-.192-2.705-.138-4.077-.135q-2.073.044-4.165.058"/><path d="M1087.53 1624.788a45 45 0 0 1-3.445.912c-.583.122-1.17.228-1.77.3-.302.032-.6.068-.927.05-.323-.013-.623-.075-.918-.132-1.179-.238-2.31-.571-3.458-.821-1.13-.24-2.32-.523-3.372-.39a15 15 0 0 0-1.693.345c-.535.155-1.099.361-1.43.667-.158.161-.197.272-.146.445.034.124.236.278.462.399.48.227 1.045.369 1.607.471a9.6 9.6 0 0 0 1.722.147c.566-.01 1.173-.052 1.631-.29.634-.218-.243-.534-.738-.68a18 18 0 0 0-1.73-.375 12 12 0 0 1 1.775.183c.296.059.59.119.884.26.126.071.35.166.354.466-.05.27-.217.37-.35.457-.584.347-1.204.398-1.808.451-.608.041-1.216.02-1.822-.049-.606-.073-1.211-.184-1.81-.451-.284-.155-.637-.32-.82-.764-.067-.19-.101-.43-.03-.644.056-.221.187-.387.315-.524.541-.509 1.147-.681 1.733-.871a15 15 0 0 1 1.782-.383c.662-.088 1.28-.016 1.879.075q.9.147 1.769.368c1.157.296 2.297.639 3.423.95.572.17 1.083.22 1.676.172.58-.035 1.164-.112 1.747-.192 1.173-.143 2.337-.358 3.508-.552m-7.866 2.737c-1.453.71-2.996 1.15-4.565 1.468-.79.141-1.586.258-2.395.285-.8.014-1.657.002-2.399-.357.804.05 1.565-.105 2.339-.224l2.314-.438c1.549-.29 3.098-.593 4.706-.734m7.214 2.936c1.23.398 2.392.79 3.586 1.066.593.155 1.195.245 1.802.335.611.089 1.224.103 1.877.148a5.1 5.1 0 0 1-1.9.435 7 7 0 0 1-1.95-.19 8.4 8.4 0 0 1-1.83-.676c-.576-.296-1.125-.654-1.585-1.118"/></g><path fill="#ffc800" d="M1091.143 1567.357a.838.838 0 1 0 1.675 0 .838.838 0 0 0-1.675 0m-8.985-36.019a.837.837 0 1 0 1.675 0 .837.837 0 0 0-1.675 0m-32.063 30.544a.837.837 0 1 0 1.021-1.326.837.837 0 0 0-1.021 1.326m-7.515 51.225a.838.838 0 1 0 1.675 0 .838.838 0 0 0-1.675 0m52.426-5.684a.837.837 0 1 0 1.674 0 .837.837 0 0 0-1.674 0m-4.997-34.583a1.134 1.134 0 1 0 2.268 0 1.134 1.134 0 0 0-2.268 0m-35.358-20.355a1.134 1.134 0 1 0 1.384-1.796 1.134 1.134 0 0 0-1.384 1.796m-9.924 41.998a1.134 1.134 0 1 0 2.268 0 1.134 1.134 0 0 0-2.268 0m43.479-23.266a.492.492 0 1 0 .983 0 .492.492 0 0 0-.983 0m4.189 15.913a.492.492 0 1 0 .983 0 .492.492 0 0 0-.983 0m6.417 15.787a.492.492 0 1 0 .984 0 .492.492 0 0 0-.984 0m-55.731-11.955a.491.491 0 1 0 .983 0 .491.491 0 0 0-.983 0m51.779-35.312a.492.492 0 1 0 .983 0 .492.492 0 0 0-.983 0m-22.64-4.555a.492.492 0 1 0 .983 0 .492.492 0 0 0-.983 0m-3.695-7.409a.492.492 0 1 0 .984 0 .492.492 0 0 0-.984 0m-16.459 82.372c3.502 2.214 16.108 3.844 16.108 3.844l3.298.052s8.241-1.971 9.43-2.37c1.182-.395 4.024.869 5.33 0 1.302-.865 7.569-6.548 7.992-8.21.423-1.664-2.12-7.67-2.19-8.852-.072-1.183 1.662-8.372 1.824-10.743.157-2.37-6.875-14.125-7.507-16.03s2.038-8.857 2.038-8.857-5.81 6.087-5.62 7.507c.185 1.421 2.831 4.737 2.969 5.768.138 1.026-3.597 8.372-3.468 9.398.133 1.026 1.81 4.423 1.644 5.925 0 0-.86-3.473-2.652-4.58-1.786-1.107-3.6-1.977-4.39-2.685-.788-.713-2.893-6.718-2.712-7.426.185-.712 1.843-2.594 1.605-5.05-.237-2.457-5.487-10.91-5.487-10.91s.917 4.662 0 5.769c-.913 1.102-4.229 2.84-4.547 3.71-.314.87 3.002 4.662 2.608 5.612-.394.945-7.868 2.447-8.633 3.473-.77 1.026-2.822 8.851-2.266 10.348.55 1.501 2.366 7.189 1.34 8.296s-3.24 1.582-3.317 1.107c-.08-.476 1.345-4.03.79-6.239-.552-2.214-2.923-7.032-3.08-8.22-.161-1.183 1.444-7.16 2.105-8.556.66-1.397-4.58 7.373-4.87 9.692-.29 2.314 1.502 9.821 1.288 9.978-.21.156-1.065-.737-1.321-1.212-.257-.475 0-4.342 0-4.342s-2.998 3.501-3.34 5.026c-.342 1.53 1.397 5.27 1.135 6.533-.266 1.264-1.606 4.186-1.767 5.873-.157 1.682 4.404 5.573 5.663 6.371m35.758-11.298c-.119 1.535-1.787 4.898-1.948 5.031 0 0 .37-2.475.394-3.449.029-.974-.55-1.844-1.102-3.792-.556-1.947 1.235-4.451 1.235-4.451s1.582 4.66 1.42 6.66m-6.975 11.56s2.024-1.735 3.026-2.656c1.003-.922 3.978-2.238 4.514-3.136.537-.893 1.388-5.188 1.388-5.188s.76 4.347.394 5.744c-.37 1.392-3.791 4.475-4.899 5.055-1.107.58-4.423.18-4.423.18m-22.05-13.123c-.114.209-1.654 3.069-1.73 4.513-.08 1.502.789 3.374 1.421 4.348s1.316 3.501 1.316 3.501-3.502-1.634-4.105-4.214c-.59-2.504 2.898-7.844 3.098-8.148"/><path fill="#ffc800" d="M1082.491 1576.387s3.625-2.581 3.735-4.53c.11-1.948-2.268-6.004-2.027-7.584s1.04-3.054 1.04-3.054-3.837 2.633-3.819 4.793c.018 2.159 2.283 5.582 2.072 6.636-.21 1.053-1 3.739-1 3.739m-21.657 11.857s.842-2.567.724-3.581c-.119-1.014-1.33-2.357-1.33-2.357s-.961 1.014-.487 2.66a49 49 0 0 0 1.093 3.278m-8.967-.434c.217-.237 1.797-3.009 2.074-5.504s-1.047-5.635-1.501-6.445-2.37-1.896-2.37-1.896 1.304 2.054 1.343 2.982c.04.928-.652 3.812-.75 4.938-.1 1.125 1.204 5.925 1.204 5.925m23.542-14.97s2.725-3.714 2.212-6.123c-.514-2.41-2.626-5.548-3.437-6.36-.81-.81-2.804-2.726-3.633-4.03-.83-1.302-.87-6.042 0-7.227.868-1.184 2.37-1.91 2.37-1.91s-3.714-.183-6.084 3.135-5.411 16.195-3.989 19.117 5.411 5.807 5.411 5.807-1.066-5.096-.71-6.36c.355-1.264 4.147-.003 5.095.769s2.765 3.182 2.765 3.182m6.265 18.209s1.674-1.738 1.319-3.24c-.356-1.5-2.489-3.752-2.607-4.463-.119-.71.493-3.6.493-3.6s-2.152 4.074-1.678 5.338.908 3.16.908 3.16-.948-.632-1.145-1.145c-.198-.514-.395-1.383-.395-1.383s-1.62 2.015-1.106 3.436c.513 1.423 3.318 4.148 3.318 4.148s-.079-.83-.04-1.303c.04-.474.34-.202.933-.948"/><path fill="#fff" d="M1070.086 1629.904s9.875-3.553 12.076-8.606c1.382-3.172-2.343-9.655-2.66-10.682-.315-1.027.098-4.977-.424-6.557-.523-1.58-7.515-5.723-8.127-6.812-.612-1.088 1.22-5.433 1.22-5.433s-5.311 4.297-6.1 6.73 2.365 7.172 2.329 8.042-1.853 3.442-1.853 3.442-1.405-1.784-1.453-3.442.767-2.518.597-3.669c-.17-1.15-2.311-3.361-2.311-3.361s1.113 1.984.56 3.361c-.553 1.379-3.242 4.065-2.846 6.198.397 2.132 3.555 7.032 3.28 8.374s-.994 2.302-.994 2.302-.863-2-1.139-3.336-.568-3.112-.568-3.112-1.62 8.767.047 11.236 8.366 5.325 8.366 5.325m2.626-61.101c.079-.158 1.143-2.545 1.182-3.849.04-1.303-2.33-3.041-3.397-4.029-1.066-.987-3.357-4.187-3.16-5.845.198-1.66.443-2.923.443-2.923s-3.287 9.4-3.09 12.363 1.936 4.858 1.936 4.858.63-2.853 2.015-2.765c1.856.119 4.071 2.19 4.071 2.19m10.635 6.29s2.11-1.975 2.083-3.292c-.028-1.317-2.083-4.977-2.083-4.977s.884 4.292 1.042 5.135-1.042 3.134-1.042 3.134m-24.394 51.717s-4.286-2.67-5.065-3.37-1.966-4.474-1.886-5.223c.078-.75 1.461-4.098 1.461-5.02s-2.804-4.2-2.804-4.2.908 3.109.75 3.865-3.813 5.1-3.585 6.72 3.705 4.548 4.705 5.205c1 .656 6.424 2.023 6.424 2.023m30.237-17.274s2.845-7.373 2.583-9.322-3.567-9.322-3.567-9.322.239 6.29.508 7.28c.269.989-.508 3.99-.508 3.99s-1.017-2.159-1.2-2.949c-.182-.79.565-3.844.565-3.844s-2.064 5.46-1.59 7.548c.474 2.09 3.208 6.619 3.208 6.619" opacity=".4"/></svg>